<?xml version="1.0" encoding="UTF-8" standalone="no"?>
<svg
   xmlns:dc="http://purl.org/dc/elements/1.1/"
   xmlns:cc="http://creativecommons.org/ns#"
   xmlns:rdf="http://www.w3.org/1999/02/22-rdf-syntax-ns#"
   xmlns:svg="http://www.w3.org/2000/svg"
   xmlns="http://www.w3.org/2000/svg"
   viewBox="0 0 2448.24 1516.1467"
   height="1516.1467"
   width="2448.24"
   xml:space="preserve"
   id="svg2"
   version="1.1"><metadata
     id="metadata8"><rdf:RDF><cc:Work
         rdf:about=""><dc:format>image/svg+xml</dc:format><dc:type
           rdf:resource="http://purl.org/dc/dcmitype/StillImage" /></cc:Work></rdf:RDF></metadata><defs
     id="defs6" /><g
     transform="matrix(1.3333333,0,0,-1.3333333,0,1516.1467)"
     id="g10"><g
       transform="scale(0.1)"
       id="g12"><g
         transform="scale(1.12649)"
         id="g14"><path
           id="path16"
           style="fill:#ffffff;fill-opacity:1;fill-rule:nonzero;stroke:none"
           d="M 16300,0 H 0 V 10094.3 H 16300 V 0" /></g><path
         id="path18"
         style="fill:#dfdce0;fill-opacity:1;fill-rule:nonzero;stroke:none"
         d="m 14190.9,7434.91 c -16.5,0 -30,13.43 -30,30 v 80 c 0,16.57 13.5,30 30,30 16.6,0 30,-13.43 30,-30 v -80 c 0,-16.57 -13.4,-30 -30,-30" /><path
         id="path20"
         style="fill:#dfdce0;fill-opacity:1;fill-rule:nonzero;stroke:none"
         d="m 14190.9,7085.96 c -16.5,0 -30,13.43 -30,30 v 174.48 c 0,16.57 13.5,30 30,30 16.6,0 30,-13.43 30,-30 v -174.48 c 0,-16.57 -13.4,-30 -30,-30 z m 0,-348.94 c -16.5,0 -30,13.43 -30,30 v 174.47 c 0,16.57 13.5,30 30,30 16.6,0 30,-13.43 30,-30 v -174.47 c 0,-16.57 -13.4,-30 -30,-30 z m 194.6,-247.98 c -1.2,0 -2.5,0.07 -3.7,0.22 -66.7,8.26 -126.3,42.12 -167.7,95.37 -10.2,13.08 -7.9,31.93 5.2,42.11 13.1,10.16 31.9,7.84 42.1,-5.23 31.6,-40.6 77,-66.42 127.8,-72.7 16.4,-2.04 28.1,-17.01 26,-33.45 -1.8,-15.2 -14.8,-26.32 -29.7,-26.32" /><path
         id="path22"
         style="fill:#dfdce0;fill-opacity:1;fill-rule:nonzero;stroke:none"
         d="m 14640.1,6487.34 h -80 c -16.6,0 -30,13.43 -30,30 0,16.57 13.4,30 30,30 h 80 c 16.6,0 30,-13.43 30,-30 0,-16.57 -13.4,-30 -30,-30" /><path
         id="path24"
         style="fill:#dfdce0;fill-opacity:1;fill-rule:nonzero;stroke:none"
         d="m 14901.8,7906.45 h -80 c -16.6,0 -30,13.43 -30,30 0,16.57 13.4,30 30,30 h 80 c 16.5,0 30,-13.43 30,-30 0,-16.57 -13.5,-30 -30,-30" /><path
         id="path26"
         style="fill:#dfdce0;fill-opacity:1;fill-rule:nonzero;stroke:none"
         d="m 15661,8093.27 c -2.7,0 -5.3,0.35 -8,1.08 -16,4.41 -25.4,20.93 -21,36.9 5.4,19.38 8.1,39.52 8.1,59.85 v 100.36 c 0,16.57 13.4,30 30,30 16.6,0 30,-13.43 30,-30 V 8191.1 c 0,-25.72 -3.5,-51.22 -10.2,-75.79 -3.7,-13.31 -15.8,-22.04 -28.9,-22.04 z m -421.2,-186.82 h -169 c -16.6,0 -30,13.43 -30,30 0,16.57 13.4,30 30,30 h 169 c 16.6,0 30,-13.43 30,-30 0,-16.57 -13.4,-30 -30,-30 z m 175.6,0 h -6.5 c -16.6,0 -30,13.43 -30,30 0,16.57 13.4,30 30,30 h 6.5 c 48.6,0 94.9,15.25 133.8,44.13 13.3,9.87 32,7.09 41.9,-6.21 9.9,-13.3 7.1,-32.09 -6.2,-41.97 -49.3,-36.6 -107.9,-55.95 -169.5,-55.95" /><path
         id="path28"
         style="fill:#dfdce0;fill-opacity:1;fill-rule:nonzero;stroke:none"
         d="m 15670.1,8430.75 c -16.6,0 -30,13.43 -30,30 v 80 c 0,16.57 13.4,30 30,30 16.6,0 30,-13.43 30,-30 v -80 c 0,-16.57 -13.4,-30 -30,-30" /><path
         id="path30"
         style="fill:#dfdce0;fill-opacity:1;fill-rule:nonzero;stroke:none"
         d="m 12840.1,8595.75 c -16.6,0 -30,13.43 -30,30 v 80 c 0,16.57 13.4,30 30,30 16.6,0 30,-13.43 30,-30 v -80 c 0,-16.57 -13.4,-30 -30,-30" /><path
         id="path32"
         style="fill:#dfdce0;fill-opacity:1;fill-rule:nonzero;stroke:none"
         d="m 12840.1,8243.38 c -16.6,0 -30,13.43 -30,30 v 176.19 c 0,16.57 13.4,30 30,30 16.6,0 30,-13.43 30,-30 v -176.19 c 0,-16.57 -13.4,-30 -30,-30 z m 113.7,-306.93 c -4.1,0 -8.4,0.87 -12.4,2.71 -62.3,28.4 -109.1,85.04 -125.1,151.47 -3.9,16.11 6,32.32 22.1,36.19 16.2,3.85 32.4,-6.03 36.2,-22.15 11.7,-48.63 46,-90.09 91.7,-110.9 15.1,-6.88 21.7,-24.67 14.8,-39.75 -5,-11.05 -15.9,-17.57 -27.3,-17.57 z m 349.9,-17.37 h -176.2 c -16.6,0 -30,13.43 -30,30 0,16.57 13.4,30 30,30 h 176.2 c 16.6,0 30,-13.43 30,-30 0,-16.57 -13.4,-30 -30,-30" /><path
         id="path34"
         style="fill:#dfdce0;fill-opacity:1;fill-rule:nonzero;stroke:none"
         d="m 13560.1,7919.08 h -80 c -16.6,0 -30,13.43 -30,30 0,16.57 13.4,30 30,30 h 80 c 16.6,0 30,-13.43 30,-30 0,-16.57 -13.4,-30 -30,-30" /><path
         id="path36"
         style="fill:#dfdce0;fill-opacity:1;fill-rule:nonzero;stroke:none"
         d="m 9681.76,8739.08 c -16.54,0 -29.96,13.38 -30,29.92 l -0.22,80 c -0.05,16.56 13.35,30.03 29.91,30.08 h 0.09 c 16.53,0 29.95,-13.38 30,-29.92 l 0.22,-80 c 0.04,-16.57 -13.35,-30.03 -29.92,-30.08 h -0.08" /><path
         id="path38"
         style="fill:#dfdce0;fill-opacity:1;fill-rule:nonzero;stroke:none"
         d="m 10065.8,9192.41 h -168.85 c -16.57,0 -30,13.43 -30,30 0,16.57 13.43,30 30,30 h 168.85 c 16.6,0 30,-13.43 30,-30 0,-16.57 -13.4,-30 -30,-30 z m 337.7,0 h -168.8 c -16.6,0 -30,13.43 -30,30 0,16.57 13.4,30 30,30 h 168.8 c 16.6,0 30,-13.43 30,-30 0,-16.57 -13.4,-30 -30,-30 z m 337.7,0 h -168.8 c -16.6,0 -30,13.43 -30,30 0,16.57 13.4,30 30,30 h 168.8 c 16.6,0 30,-13.43 30,-30 0,-16.57 -13.4,-30 -30,-30 z m 337.7,0 h -168.8 c -16.6,0 -30,13.43 -30,30 0,16.57 13.4,30 30,30 h 168.8 c 16.6,0 30,-13.43 30,-30 0,-16.57 -13.4,-30 -30,-30 z m 337.8,0 h -168.9 c -16.6,0 -30,13.43 -30,30 0,16.57 13.4,30 30,30 h 168.9 c 16.5,0 30,-13.43 30,-30 0,-16.57 -13.5,-30 -30,-30 z m 337.7,0 h -168.9 c -16.6,0 -30,13.43 -30,30 0,16.57 13.4,30 30,30 h 168.9 c 16.5,0 30,-13.43 30,-30 0,-16.57 -13.5,-30 -30,-30 z M 9681.07,8987.94 c -16.54,0 -29.96,13.37 -30,29.92 l -0.03,11.03 c 0,61.75 25.52,120.88 70.02,162.82 12.05,11.37 31.04,10.81 42.41,-1.25 11.36,-12.05 10.8,-31.04 -1.26,-42.4 -33,-31.11 -51.17,-73.21 -51.17,-118.55 l 0.03,-11.5 c 0.04,-16.56 -13.35,-30.03 -29.92,-30.07 h -0.08" /><path
         id="path40"
         style="fill:#dfdce0;fill-opacity:1;fill-rule:nonzero;stroke:none"
         d="m 12003.4,9192.41 h -80 c -16.5,0 -30,13.43 -30,30 0,16.57 13.5,30 30,30 h 80 c 16.6,0 30,-13.43 30,-30 0,-16.57 -13.4,-30 -30,-30" /><path
         id="path42"
         style="fill:#dfdce0;fill-opacity:1;fill-rule:nonzero;stroke:none"
         d="m 7299.19,6693.25 h -85.85 c -17.78,0 -32.19,13.43 -32.19,30 0,16.57 14.41,30 32.19,30 h 85.85 c 17.77,0 32.19,-13.43 32.19,-30 0,-16.57 -14.42,-30 -32.19,-30" /><path
         id="path44"
         style="fill:#dfdce0;fill-opacity:1;fill-rule:nonzero;stroke:none"
         d="m 9678.97,7067.17 c -17.76,0 -32.17,13.39 -32.2,29.95 l -0.28,165.83 c -0.02,16.57 14.36,30.01 32.14,30.05 h 0.05 c 17.76,0 32.17,-13.4 32.19,-29.96 l 0.29,-165.83 c 0.03,-16.57 -14.36,-30.02 -32.14,-30.04 h -0.05 m -84.02,-309.48 c -8.67,0 -17.32,3.25 -23.67,9.67 -12.06,12.18 -11.22,31.16 1.84,42.39 38.59,33.15 63.98,77.9 71.49,126.02 2.56,16.4 18.89,27.77 36.49,25.37 17.59,-2.38 29.77,-17.61 27.22,-34 -9.63,-61.7 -42.14,-119.05 -91.55,-161.51 -6.19,-5.31 -14.02,-7.94 -21.82,-7.94 m -1939.87,-64.44 h -177.95 c -17.78,0 -32.19,13.42 -32.19,30 0,16.57 14.41,30 32.19,30 h 177.95 c 17.78,0 32.19,-13.43 32.19,-30 0,-16.58 -14.41,-30 -32.19,-30 m 355.9,0 h -177.95 c -17.78,0 -32.19,13.42 -32.19,30 0,16.57 14.41,30 32.19,30 h 177.95 c 17.78,0 32.19,-13.43 32.19,-30 0,-16.58 -14.41,-30 -32.19,-30 m 355.89,0 h -177.95 c -17.77,0 -32.19,13.42 -32.19,30 0,16.57 14.42,30 32.19,30 h 177.95 c 17.78,0 32.2,-13.43 32.2,-30 0,-16.58 -14.42,-30 -32.2,-30 m 355.9,0 h -177.95 c -17.77,0 -32.19,13.42 -32.19,30 0,16.57 14.42,30 32.19,30 h 177.95 c 17.78,0 32.19,-13.43 32.19,-30 0,-16.58 -14.41,-30 -32.19,-30 m 355.9,0 h -177.95 c -17.77,0 -32.19,13.42 -32.19,30 0,16.57 14.42,30 32.19,30 h 177.95 c 17.78,0 32.19,-13.43 32.19,-30 0,-16.58 -14.41,-30 -32.19,-30 m 339.16,0 h -161.22 c -17.77,0 -32.19,13.42 -32.19,30 0,16.57 14.42,30 32.19,30 h 161.22 c 4.94,0 9.84,0.14 14.71,0.43 17.8,1.06 33.02,-11.53 34.13,-28.07 1.12,-16.54 -12.37,-30.78 -30.11,-31.82 -6.19,-0.35 -12.44,-0.54 -18.73,-0.54" /><path
         id="path46"
         style="fill:#dfdce0;fill-opacity:1;fill-rule:nonzero;stroke:none"
         d="m 9678.4,7399.08 c -17.76,0 -32.16,13.4 -32.19,29.95 l -0.14,80 c -0.02,16.57 14.37,30.02 32.14,30.05 h 0.06 c 17.75,0 32.16,-13.4 32.19,-29.95 l 0.13,-80 c 0.03,-16.58 -14.36,-30.02 -32.14,-30.05 h -0.05" /><path
         id="path48"
         style="fill:#f0edf2;fill-opacity:1;fill-rule:nonzero;stroke:none"
         d="M 7062.28,9583.16 H 2022.53 c -236.09,0 -427.48,-191.39 -427.48,-427.48 V 6182.32 c 0,-236.09 191.39,-427.48 427.48,-427.48 h 5039.75 c 236.09,0 427.48,191.39 427.48,427.48 v 2973.36 c 0,236.09 -191.39,427.48 -427.48,427.48" /><path
         id="path50"
         style="fill:#3a323d;fill-opacity:1;fill-rule:nonzero;stroke:none"
         d="M 14643.4,5325.57 H 10734.3 V 1829.08 h 3909.1 v 3496.49" /><path
         id="path52"
         style="fill:#5b525e;fill-opacity:1;fill-rule:nonzero;stroke:none"
         d="m 14643.4,1482.41 v 0 c -198,0 -360,162 -360,360 v 3123.16 c 0,198 162,360 360,360 198,0 360,-162 360,-360 V 1842.41 c 0,-198 -162,-360 -360,-360" /><path
         id="path54"
         style="fill:#84aad1;fill-opacity:1;fill-rule:nonzero;stroke:none"
         d="m 11080.6,4814.08 c 0,0 -900.5,85 -1183.85,-315 -283.33,-400 -608.33,-1530 -608.33,-1530 l -455,1100 -632.5,-200 c 0,0 457.5,-1520 702.5,-2005 245,-485 632.22,-315 756.11,-115 123.89,200 443.87,840 443.87,840 v -930 l 2785,25 v 1260 l 290,-645 1041,-35.46 c 0,0 -586,1948.79 -936,2288.79 -321.1,311.96 -1422.8,241.67 -1422.8,241.67 l -780,20" /><path
         id="path56"
         style="fill:#fff1e4;fill-opacity:1;fill-rule:nonzero;stroke:none"
         d="m 10493.3,6330.68 c 0,0 -342.7,-120 -212.7,-590 130,-470 936.7,-180 936.7,-180 l -724,770" /><path
         id="path58"
         style="fill:#ddc1b7;fill-opacity:1;fill-rule:nonzero;stroke:none"
         d="M 15248.4,1829.08 H 2218.42 c -135.31,0 -245,-109.69 -245,-245 v 0 c 0,-135.31 109.69,-244.98 245,-244.98 H 15248.4 c 135.3,0 245,109.67 245,244.98 v 0 c 0,135.31 -109.7,245 -245,245" /><path
         id="path60"
         style="fill:#cecbd6;fill-opacity:1;fill-rule:nonzero;stroke:none"
         d="M 9776.75,2069.08 H 6510.09 c -66.28,0 -120,-53.73 -120,-120 0,-66.28 53.72,-120 120,-120 h 3266.66 c 66.28,0 120,53.72 120,120 0,66.27 -53.72,120 -120,120" /><path
         id="path62"
         style="fill:#e0dde5;fill-opacity:1;fill-rule:nonzero;stroke:none"
         d="M 8483.42,2102.41 H 5271.38 c -66.28,0 -120,-53.72 -120,-120 v -33.33 c 0,-66.28 53.72,-120 120,-120 h 3212.04 c 66.27,0 120,53.72 120,120 v 33.33 c 0,66.28 -53.73,120 -120,120" /><path
         id="path64"
         style="fill:#f7b394;fill-opacity:1;fill-rule:nonzero;stroke:none"
         d="m 9040.92,4258.59 c 14.17,462.15 -123.68,298.61 -276.25,298.61 -152.58,0 -276.26,-133.69 -276.26,-298.61 0,-164.91 123.68,-298.61 276.26,-298.61 152.57,0 271.2,133.77 276.25,298.61" /><path
         id="path66"
         style="fill:#f7b394;fill-opacity:1;fill-rule:nonzero;stroke:none"
         d="m 10644,6617.34 c 0,0 -88.5,-184.52 -115,-365 -26.5,-180.48 65,-705.04 95,-742.52 30,-37.48 1580,0 1580,0 v 1157.52 c 0,0 -595,370 -625,370 -30,0 -935,-420 -935,-420" /><path
         id="path68"
         style="fill:#f9f6fb;fill-opacity:1;fill-rule:nonzero;stroke:none"
         d="m 11048.3,2154.08 h -271.8 c -179.5,0 -325,-145.51 -325,-325 h 921.8 c 0,179.49 -145.5,325 -325,325" /><path
         id="path70"
         style="fill:#e0dde5;fill-opacity:1;fill-rule:nonzero;stroke:none"
         d="M 7563.65,3649.08 H 4537.02 c -95.12,0 -154.66,-100.58 -107.29,-181.23 l 821.7,-1398.77 h 3311.99 l -892.49,1519.28 c -22.06,37.56 -62.98,60.72 -107.28,60.72" /><path
         id="path72"
         style="fill:#f1eef3;fill-opacity:1;fill-rule:nonzero;stroke:none"
         d="M 7433.51,3649.08 H 4503.38 c -92.09,0 -149.73,-100.58 -103.87,-181.23 l 795.5,-1398.77 h 3206.4 l -864.04,1519.28 c -21.36,37.56 -60.97,60.72 -103.86,60.72" /><path
         id="path74"
         style="fill:#e0dde5;fill-opacity:1;fill-rule:nonzero;stroke:none"
         d="m 6389.76,3282.61 c 0,110.69 -111.3,200.42 -248.6,200.42 -137.29,0 -248.59,-89.73 -248.59,-200.42 0,-110.69 111.3,-200.42 248.59,-200.42 137.3,0 248.6,89.73 248.6,200.42" /><path
         id="path76"
         style="fill:#f7b394;fill-opacity:1;fill-rule:nonzero;stroke:none"
         d="m 11058.4,4954.08 v -215 c 0,0 305,-335 875,0 v 215 h -875" /><path
         id="path78"
         style="fill:#a7a4ad;fill-opacity:1;fill-rule:nonzero;stroke:none"
         d="m 9783.42,1985.74 h -810 v -73.33 h 810 v 73.33" /><path
         id="path80"
         style="fill:#a7a4ad;fill-opacity:1;fill-rule:nonzero;stroke:none"
         d="m 8862.17,1985.74 h -147.5 v -73.33 h 147.5 v 73.33" /><path
         id="path82"
         style="fill:#fff1e4;fill-opacity:1;fill-rule:nonzero;stroke:none"
         d="m 11319.3,2018.7 59.8,4 c -42.4,635.29 -182.8,1257.55 -417.3,1849.5 -23.3,58.89 -48,118.49 -71.8,176.11 -92.8,224.12 -188.7,455.86 -226.7,696.61 -32,202.86 -58.3,826.11 -44.6,934.12 l -59.5,7.55 c -15.3,-121 14.8,-760.94 44.8,-951.02 39.1,-247.78 136.4,-482.85 230.5,-710.2 23.8,-57.42 48.4,-116.8 71.5,-175.27 232.3,-586.15 371.3,-1202.32 413.3,-1831.4" /><path
         id="path84"
         style="fill:#4f333e;fill-opacity:1;fill-rule:nonzero;stroke:none"
         d="m 11785.6,6517.34 h -250 c -41.2,0 -75,-33.75 -75,-75 0,-41.25 33.8,-75 75,-75 h 250 c 41.3,0 75,33.75 75,75 0,41.25 -33.7,75 -75,75" /><path
         id="path86"
         style="fill:#4f333e;fill-opacity:1;fill-rule:nonzero;stroke:none"
         d="m 11005.6,6517.34 h -250 c -41.2,0 -75,-33.75 -75,-75 0,-41.25 33.8,-75 75,-75 h 250 c 41.3,0 75,33.75 75,75 0,41.25 -33.7,75 -75,75" /><path
         id="path88"
         style="fill:#5c3b48;fill-opacity:1;fill-rule:nonzero;stroke:none"
         d="m 10574,6307.34 c 0,0 -115,-700 300,-695 415,5 935,-37.09 1110,51.46 175,88.54 70,858.54 0,1008.54 -70,150 -490,280 -850,0 -268.3,-208.63 -427.5,-391.42 -640.7,-368.26 0,0 -155.4,2.5 -244.3,103.26 -147.4,166.91 -80,475 -80,475 0,0 285,-115 475,190 190,305 951.1,662.42 1560,155 480,-400 340,-1593.67 230,-1956.9 -110,-363.23 -565,-453.1 -1250,-418.1 -685,35 -660,365 -670,785 -10,420 -20.7,730 -20.7,730 h 80.7 v -60" /><path
         id="path90"
         style="fill:#fff1e4;fill-opacity:1;fill-rule:nonzero;stroke:none"
         d="m 11310.3,2060.31 -59.2,9.67 c 102.6,628.39 301.5,1234.49 591.2,1801.47 28.8,56.41 59,113.39 88.2,168.49 113.7,214.28 231.2,435.86 291.9,671.91 51.1,198.9 136.5,816.84 133.1,925.66 l 60,1.85 c 3.8,-121.9 -87.1,-756.08 -135,-942.45 -62.5,-242.94 -181.7,-467.71 -297,-685.08 -29.1,-54.9 -59.2,-111.68 -87.8,-167.68 -286.9,-561.43 -483.8,-1161.6 -585.4,-1783.84" /><path
         id="path92"
         style="fill:#333031;fill-opacity:1;fill-rule:nonzero;stroke:none"
         d="m 11908.3,5852.34 c 0,-20.67 -16.8,-37.5 -37.5,-37.5 h -460 c -20.7,0 -37.5,16.83 -37.5,37.5 v 110 c 0,20.68 16.8,37.5 37.5,37.5 h 460 c 20.7,0 37.5,-16.82 37.5,-37.5 z m -820,0 c 0,-20.67 -16.8,-37.5 -37.5,-37.5 h -460 c -20.7,0 -37.5,16.83 -37.5,37.5 v 110 c 0,20.68 16.8,37.5 37.5,37.5 h 460 c 20.7,0 37.5,-16.82 37.5,-37.5 z m 782.5,207.5 h -460 c -53,0 -96.2,-42.58 -97.4,-95.34 -53.2,31.77 -115.3,30.02 -165.1,-2.21 v 0.05 c 0,53.76 -43.7,97.5 -97.5,97.5 h -460 c -53.8,0 -97.5,-43.74 -97.5,-97.5 v -110 c 0,-53.76 43.7,-97.5 97.5,-97.5 h 460 c 53.8,0 97.5,43.74 97.5,97.5 v 44.87 c 38.9,49.58 108.2,54.46 155.6,13.35 3,-2.61 6.2,-4.35 9.4,-5.36 v -52.86 c 0,-53.76 43.7,-97.5 97.5,-97.5 h 460 c 53.8,0 97.5,43.74 97.5,97.5 v 110 c 0,53.76 -43.7,97.5 -97.5,97.5" /><path
         id="path94"
         style="fill:#ec9589;fill-opacity:1;fill-rule:nonzero;stroke:none"
         d="m 11301.2,5373.63 c -44.5,-30.64 -96.2,-30.73 -140.8,-0.09 -42.5,29.22 -82.6,-40.08 -40.4,-69.08 66.1,-45.38 155.5,-45.36 221.6,0.1 42.1,29 2.2,98.37 -40.4,69.07" /><path
         id="path96"
         style="fill:#333031;fill-opacity:1;fill-rule:nonzero;stroke:none"
         d="m 11681.4,6181.45 c -16.6,-26.15 -45.7,-22.04 -63.8,-0.6 -33.4,39.34 -89.7,-17.49 -56.6,-56.57 52.8,-62.35 147.1,-49.84 189.4,16.79 27.7,43.6 -41.5,83.78 -69,40.38" /><path
         id="path98"
         style="fill:#333031;fill-opacity:1;fill-rule:nonzero;stroke:none"
         d="m 10871.5,6181.45 c -16.6,-26.15 -45.7,-22.04 -63.9,-0.6 -33.3,39.34 -89.6,-17.49 -56.5,-56.57 52.8,-62.35 147.1,-49.84 189.4,16.79 27.7,43.6 -41.5,83.78 -69,40.38" /><path
         id="path100"
         style="fill:#fff1e4;fill-opacity:1;fill-rule:nonzero;stroke:none"
         d="m 10680.6,7123.24 c 0,0 983.4,317.44 1386.7,-229.23 161.1,-218.32 23.3,-1320 193.3,-1356.67 241.9,-52.16 540,40 626.7,310 86.7,270 -63.3,580 -436.7,670 0,0 -96.6,1159.72 -1570,778.2 0,0 -127.4,-69.95 -200,-172.3" /><path
         id="path102"
         style="fill:#f7b394;fill-opacity:1;fill-rule:nonzero;stroke:none"
         d="m 12003.4,2412.41 c 0,0 -631.3,58.33 -901.3,-88.33 -270,-146.67 -225.3,-495 -225.3,-495 h 730 c 0,0 303.3,-20 443.3,120 140,140 -46.7,463.33 -46.7,463.33" /><path
         id="path104"
         style="fill:#b00b37;fill-opacity:1;fill-rule:nonzero;stroke:none"
         d="m 8847.17,4772.13 h -763.75 v -767.84 c 0,-96.77 78.44,-175.21 175.21,-175.21 h 413.33 c 96.77,0 175.21,78.44 175.21,175.21 v 767.84" /><path
         id="path106"
         style="fill:#8fbbe3;fill-opacity:1;fill-rule:nonzero;stroke:none"
         d="m 13843.4,2589.08 h -1640 c -209,0 -380,-171 -380,-380 v 0 c 0,-209 171,-380 380,-380 h 1640 c 209,0 380,171 380,380 v 0 c 0,209 -171,380 -380,380" /><path
         id="path108"
         style="fill:#f7b394;fill-opacity:1;fill-rule:nonzero;stroke:none"
         d="m 8169.11,4590.19 h -111.38 c -100,0 -181.81,-81.81 -181.81,-181.81 v -357.5 c 0,-99.99 81.81,-181.8 181.81,-181.8 h 111.38 c 100,0 181.81,81.81 181.81,181.8 v 357.5 c 0,100 -81.81,181.81 -181.81,181.81" /><path
         id="path110"
         style="fill:#f7b394;fill-opacity:1;fill-rule:nonzero;stroke:none"
         d="m 8944.05,4654.08 v 0 c -53.29,0 -96.88,-43.6 -96.88,-96.88 v -166.25 c 0,-53.28 43.59,-96.87 96.88,-96.87 53.28,0 96.87,43.59 96.87,96.87 v 166.25 c 0,53.28 -43.59,96.88 -96.87,96.88" /><path
         id="path112"
         style="fill:#b00b37;fill-opacity:1;fill-rule:nonzero;stroke:none"
         d="m 8847.17,4771.16 c 0,-50.24 -170.97,-90.97 -381.88,-90.97 -210.9,0 -381.87,40.73 -381.87,90.97 0,50.24 170.97,90.98 381.87,90.98 210.91,0 381.88,-40.74 381.88,-90.98" /><path
         id="path114"
         style="fill:#d6a992;fill-opacity:1;fill-rule:nonzero;stroke:none"
         d="m 8776.62,4737.55 c 0,-40.96 -139.39,-74.17 -311.33,-74.17 -171.93,0 -311.32,33.21 -311.32,74.17 0,40.96 139.39,74.16 311.32,74.16 171.94,0 311.33,-33.2 311.33,-74.16" /><path
         id="path116"
         style="fill:#f8b787;fill-opacity:1;fill-rule:nonzero;stroke:none"
         d="m 4936.75,2069.08 h -1879.5 c -66.55,0 -120.5,-53.95 -120.5,-120.5 0,-66.54 53.95,-120.49 120.5,-120.49 h 1879.5 v 240.99" /><path
         id="path118"
         style="fill:#fff1e4;fill-opacity:1;fill-rule:nonzero;stroke:none"
         d="m 3066.75,2029.08 h 1870 v -160 h -1870 c -44.18,0 -80,35.82 -80,80 0,44.18 35.82,80 80,80" /><path
         id="path120"
         style="fill:#635259;fill-opacity:1;fill-rule:nonzero;stroke:none"
         d="M 4827.59,2154.08 H 2919.25 c -23.47,0 -42.5,-19.03 -42.5,-42.5 0,-23.47 19.03,-42.5 42.5,-42.5 h 1908.34 c 23.47,0 42.5,19.03 42.5,42.5 0,23.47 -19.03,42.5 -42.5,42.5" /><path
         id="path122"
         style="fill:#7da49e;fill-opacity:1;fill-rule:nonzero;stroke:none"
         d="M 4843.42,2154.08 H 2796.75 c -23.93,0 -43.33,19.4 -43.33,43.33 v 55 c 0,23.93 19.4,43.33 43.33,43.33 h 2046.67 c 23.93,0 43.33,-19.4 43.33,-43.33 v -55 c 0,-23.93 -19.4,-43.33 -43.33,-43.33" /><path
         id="path124"
         style="fill:#34485d;fill-opacity:1;fill-rule:nonzero;stroke:none"
         d="m 3671.04,3885.05 -81.84,-8.04 133.52,-1358.46 81.84,8.05 -133.52,1358.45" /><path
         id="path126"
         style="fill:#e9c3a0;fill-opacity:1;fill-rule:nonzero;stroke:none"
         d="m 3589.2,3877.01 32.36,91.1 49.48,-83.06 c 0,0 -34.25,-42.3 -81.84,-8.04" /><path
         id="path128"
         style="fill:#34485d;fill-opacity:1;fill-rule:nonzero;stroke:none"
         d="m 3616.33,3968.85 1.35,-13.68 c 0.63,-6.41 10.58,-5.44 9.95,0.98 l -1.35,13.68 c -0.63,6.4 -10.58,5.44 -9.95,-0.98" /><path
         id="path130"
         style="fill:#eeb65c;fill-opacity:1;fill-rule:nonzero;stroke:none"
         d="m 3971.35,3937.89 -81.72,9.2 -152.78,-1356.42 81.72,-9.21 152.78,1356.43" /><path
         id="path132"
         style="fill:#e9c3a0;fill-opacity:1;fill-rule:nonzero;stroke:none"
         d="m 3889.63,3947.09 50.66,82.35 31.06,-91.55 c 0,0 -42.32,-34.23 -81.72,9.2" /><path
         id="path134"
         style="fill:#34485d;fill-opacity:1;fill-rule:nonzero;stroke:none"
         d="m 3935.33,4031.26 -1.54,-13.67 c -0.72,-6.39 9.21,-7.52 9.94,-1.12 l 1.53,13.67 c 0.72,6.39 -9.21,7.52 -9.93,1.12" /><path
         id="path136"
         style="fill:#e8e5ed;fill-opacity:1;fill-rule:nonzero;stroke:none"
         d="m 3281.01,2859.33 -38.02,12.43 c -43.31,14.15 -89.89,-9.49 -104.05,-52.8 l -55.9,-171.09 c -14.16,-43.31 9.48,-89.9 52.79,-104.05 l 38.02,-12.42 c 43.31,-14.15 89.9,9.48 104.05,52.79 l 55.9,171.1 c 14.16,43.31 -9.48,89.89 -52.79,104.04" /><path
         id="path138"
         style="fill:#ec9589;fill-opacity:1;fill-rule:nonzero;stroke:none"
         d="m 4096.89,3566.88 -345.63,-903.28 88.47,-33.85 345.63,903.28 3.06,108.03 -91.53,-74.18" /><path
         id="path140"
         style="fill:#f8b787;fill-opacity:1;fill-rule:nonzero;stroke:none"
         d="m 3761.68,2477.06 -209.27,-56.1 -403.92,1506.8 209.28,56.1 403.91,-1506.8" /><path
         id="path142"
         style="fill:#3a323d;fill-opacity:1;fill-rule:nonzero;stroke:none"
         d="m 3329.25,2892.15 v -278.07 h -279.73 c -51.69,0 -93.6,-41.91 -93.6,-93.6 v -224.73 h 373.33 26.67 990.53 v 596.4 c 0,51.69 -41.91,93.6 -93.6,93.6 h -830 c -51.69,0 -93.6,-41.91 -93.6,-93.6" /><path
         id="path144"
         style="fill:#bf8d68;fill-opacity:1;fill-rule:nonzero;stroke:none"
         d="m 3288.57,3819.92 -102.53,-27.48 6.08,-22.68 102.53,27.48 -6.08,22.68" /><path
         id="path146"
         style="fill:#bf8d68;fill-opacity:1;fill-rule:nonzero;stroke:none"
         d="m 3329.79,3666.14 -102.53,-27.48 6.08,-22.68 102.53,27.48 -6.08,22.68" /><path
         id="path148"
         style="fill:#bf8d68;fill-opacity:1;fill-rule:nonzero;stroke:none"
         d="m 3371.02,3512.36 -102.54,-27.48 6.08,-22.68 102.53,27.48 -6.07,22.68" /><path
         id="path150"
         style="fill:#bf8d68;fill-opacity:1;fill-rule:nonzero;stroke:none"
         d="m 3412.24,3358.58 -102.53,-27.48 6.08,-22.68 102.53,27.49 -6.08,22.67" /><path
         id="path152"
         style="fill:#bf8d68;fill-opacity:1;fill-rule:nonzero;stroke:none"
         d="m 3453.46,3204.81 -102.53,-27.49 6.08,-22.68 102.53,27.49 -6.08,22.68" /><path
         id="path154"
         style="fill:#bf8d68;fill-opacity:1;fill-rule:nonzero;stroke:none"
         d="m 3494.68,3051.03 -102.53,-27.49 6.08,-22.68 102.53,27.49 -6.08,22.68" /><path
         id="path156"
         style="fill:#eaebee;fill-opacity:1;fill-rule:nonzero;stroke:none"
         d="m 8390.98,4860.41 c -29.53,74.29 -76.56,163.03 -147.56,208.67 -140,90 -236.66,380.56 170,570.28 406.67,189.72 83.33,560.75 83.33,560.75 0,0 470,-354.36 236.67,-624.37 -233.33,-270 -320,-223.33 -338.33,-403.33 -19.4,-190.5 35.81,-218.21 46.86,-310.44 -17.32,-0.25 -34.35,-0.78 -50.97,-1.56" /><path
         id="path158"
         style="fill:#bb5d79;fill-opacity:1;fill-rule:nonzero;stroke:none"
         d="m 8409.21,4810.51 c -5.14,15.3 -11.19,32.18 -18.23,49.9 16.62,0.78 33.65,1.31 50.97,1.56 1.77,-14.83 2.41,-31.32 1.41,-50.44 -11.57,-0.19 -22.97,-0.53 -34.15,-1.02" /><path
         id="path160"
         style="fill:#d2b9ae;fill-opacity:1;fill-rule:nonzero;stroke:none"
         d="m 8433.02,4736.84 c -2.01,0 -9.29,30.44 -23.81,73.67 11.18,0.49 22.58,0.83 34.15,1.02 -1.11,-21.06 -4.2,-45.3 -9.94,-73.98 -0.09,-0.48 -0.23,-0.72 -0.4,-0.71" /><path
         id="path162"
         style="fill:#eaebee;fill-opacity:1;fill-rule:nonzero;stroke:none"
         d="m 8236.76,5662.41 c 0,0 -436.67,256.67 -173.34,730 65.93,118.51 113.06,218.12 146.66,300.84 h 151.06 c -6.28,-44.49 -18.85,-91.74 -40.22,-140.84 -117.5,-270 -294.15,-533.35 -84.16,-890 m 129.3,1090.84 h -132.83 c 74.1,203.38 56.86,284.09 56.86,284.09 0,0 79.89,-115.76 75.97,-284.09" /><path
         id="path164"
         style="fill:#d7d7dc;fill-opacity:1;fill-rule:nonzero;stroke:none"
         d="m 8361.14,6693.25 h -151.06 c 8.57,21.09 16.25,41.06 23.15,60 h 132.83 c -0.46,-19.34 -2.01,-39.38 -4.92,-60" /><path
         id="path166"
         style="fill:#4b82a2;fill-opacity:1;fill-rule:nonzero;stroke:none"
         d="m 6156.75,4419.08 h 113.34 l 496.66,620 h -113.33 l -496.67,-620" /><path
         id="path168"
         style="fill:#4b82a2;fill-opacity:1;fill-rule:nonzero;stroke:none"
         d="m 6122.81,4952.46 -45.45,53.24 -269.32,-229.95 269.32,-229.96 45.45,53.24 -206.96,176.72 206.96,176.71" /><path
         id="path170"
         style="fill:#4b82a2;fill-opacity:1;fill-rule:nonzero;stroke:none"
         d="m 6911.83,5005.7 -45.45,-53.24 206.97,-176.71 -206.97,-176.72 45.46,-53.24 269.31,229.96 -269.32,229.95" /><path
         id="path172"
         style="fill:#34485d;fill-opacity:1;fill-rule:nonzero;stroke:none"
         d="m 5018.42,5409.08 h -70 v 1.67 h 70 v -1.67" /><path
         id="path174"
         style="fill:#ffdb7d;fill-opacity:1;fill-rule:nonzero;stroke:none"
         d="m 10123.4,8327.41 c 0,243.93 -197.72,441.67 -441.65,441.67 -243.92,0 -441.66,-197.74 -441.66,-441.67 0,-150.2 87.15,-267.76 189.62,-362.6 154.74,-143.24 108.71,-204.9 108.71,-204.9 h 132.1 2.9 132.1 c 0,0 -25.89,61.76 129.23,205.57 102.05,94.65 188.65,212.14 188.65,361.93" /><path
         id="path176"
         style="fill:#918a94;fill-opacity:1;fill-rule:nonzero;stroke:none"
         d="m 9786.75,7795.74 h -212.5 c -19.7,0 -35.83,-16.12 -35.83,-35.83 0,-19.71 16.13,-35.83 35.83,-35.83 h 212.5 c 19.71,0 35.84,16.12 35.84,35.83 0,19.71 -16.13,35.83 -35.84,35.83" /><path
         id="path178"
         style="fill:#b1a9b5;fill-opacity:1;fill-rule:nonzero;stroke:none"
         d="m 9786.75,7724.08 h -212.5 c -19.7,0 -35.83,-16.13 -35.83,-35.84 0,-19.7 16.13,-35.83 35.83,-35.83 h 212.5 c 19.71,0 35.84,16.13 35.84,35.83 0,19.71 -16.13,35.84 -35.84,35.84" /><path
         id="path180"
         style="fill:#918a94;fill-opacity:1;fill-rule:nonzero;stroke:none"
         d="m 9779.67,7652.41 h -198.33 c -19.71,0 -35.84,-16.12 -35.84,-35.83 0,-19.71 16.13,-35.84 35.84,-35.84 h 198.33 c 19.71,0 35.83,16.13 35.83,35.84 0,19.71 -16.12,35.83 -35.83,35.83" /><path
         id="path182"
         style="fill:#b1a9b5;fill-opacity:1;fill-rule:nonzero;stroke:none"
         d="m 9763.62,7580.74 h -166.24 c -19.7,0 -35.83,-16.12 -35.83,-35.83 0,-19.71 16.13,-35.83 35.83,-35.83 h 166.24 c 19.71,0 35.84,16.12 35.84,35.83 0,19.71 -16.13,35.83 -35.84,35.83" /><path
         id="path184"
         style="fill:#ffffff;fill-opacity:1;fill-rule:nonzero;stroke:none"
         d="m 9538.42,8656.58 c 0,0 -137.5,-45 -187.5,-222.5 l 132.5,-52.5 c 0,0 17.5,162.5 172.5,222.5 l -117.5,52.5" /><path
         id="path186"
         style="fill:#d1c8d6;fill-opacity:1;fill-rule:nonzero;stroke:none"
         d="M 6156.75,9069.08 H 1971.09 v -66.67 h 4185.66 v 66.67" /><path
         id="path188"
         style="fill:#d1c8d6;fill-opacity:1;fill-rule:nonzero;stroke:none"
         d="m 2366.45,8842.41 h 3960 v 66.67 h -3960 v -66.67" /><path
         id="path190"
         style="fill:#d1c8d6;fill-opacity:1;fill-rule:nonzero;stroke:none"
         d="M 6358.42,8749.08 H 3266.14 v -66.67 h 3092.28 v 66.67" /><path
         id="path192"
         style="fill:#d1c8d6;fill-opacity:1;fill-rule:nonzero;stroke:none"
         d="M 6358.42,8589.08 H 3266.14 v -66.67 h 3092.28 v 66.67" /><path
         id="path194"
         style="fill:#8ab5ae;fill-opacity:1;fill-rule:nonzero;stroke:none"
         d="m 3266.14,8362.41 h 3092.28 v 66.67 H 3266.14 v -66.67" /><path
         id="path196"
         style="fill:#ec9589;fill-opacity:1;fill-rule:nonzero;stroke:none"
         d="m 3266.14,7913.24 v -66.66 h 2807.28 v 66.66 H 3266.14" /><path
         id="path198"
         style="fill:#ec9589;fill-opacity:1;fill-rule:nonzero;stroke:none"
         d="m 2478.42,7913.24 v -66.66 h 241.67 v 66.66 h -241.67" /><path
         id="path200"
         style="fill:#ec9589;fill-opacity:1;fill-rule:nonzero;stroke:none"
         d="m 2478.42,7526.58 h 241.67 v 66.66 h -241.67 v -66.66" /><path
         id="path202"
         style="fill:#ec9589;fill-opacity:1;fill-rule:nonzero;stroke:none"
         d="m 2478.42,7206.58 h 241.67 v 66.66 h -241.67 v -66.66" /><path
         id="path204"
         style="fill:#d1c8d6;fill-opacity:1;fill-rule:nonzero;stroke:none"
         d="M 6502.96,7753.24 H 3266.14 v -66.66 h 3236.82 v 66.66" /><path
         id="path206"
         style="fill:#d1c8d6;fill-opacity:1;fill-rule:nonzero;stroke:none"
         d="M 6502.96,7593.24 H 3266.14 v -66.66 h 3236.82 v 66.66" /><path
         id="path208"
         style="fill:#8ab5ae;fill-opacity:1;fill-rule:nonzero;stroke:none"
         d="m 3266.14,7362.41 h 3236.82 v 66.67 H 3266.14 v -66.67" /><path
         id="path210"
         style="fill:#d1c8d6;fill-opacity:1;fill-rule:nonzero;stroke:none"
         d="m 3266.14,7269.08 v -66.67 h 3960 v 66.67 h -3960" /><path
         id="path212"
         style="fill:#d1c8d6;fill-opacity:1;fill-rule:nonzero;stroke:none"
         d="m 3266.14,7042.41 h 3960 v 66.67 h -3960 v -66.67" /><path
         id="path214"
         style="fill:#ec9589;fill-opacity:1;fill-rule:nonzero;stroke:none"
         d="m 2536.14,6619.08 v -66.67 h 3168.33 v 66.67 H 2536.14" /><path
         id="path216"
         style="fill:#d1c8d6;fill-opacity:1;fill-rule:nonzero;stroke:none"
         d="m 2536.14,6392.41 h 3966.82 v 66.67 H 2536.14 v -66.67" /><path
         id="path218"
         style="fill:#8ab5ae;fill-opacity:1;fill-rule:nonzero;stroke:none"
         d="m 2536.14,6232.41 h 3966.82 v 66.67 H 2536.14 v -66.67" /><path
         id="path220"
         style="fill:#d1c8d6;fill-opacity:1;fill-rule:nonzero;stroke:none"
         d="M 7023.76,8119.08 H 1971.09 v -66.67 h 5052.67 v 66.67" /><path
         id="path222"
         style="fill:#d1c8d6;fill-opacity:1;fill-rule:nonzero;stroke:none"
         d="m 1971.09,6723.24 h 4657.32 v 66.67 H 1971.09 v -66.67" /><path
         id="path224"
         style="fill:#f0edf2;fill-opacity:1;fill-rule:nonzero;stroke:none"
         d="m 13631.1,9749.08 h -1514.3 c -62.6,0 -113.4,-50.74 -113.4,-113.34 v -816.66 c 0,-62.59 50.8,-113.34 113.4,-113.34 h 1514.3 c 62.6,0 113.3,50.75 113.3,113.34 v 816.66 c 0,62.6 -50.7,113.34 -113.3,113.34" /><path
         id="path226"
         style="fill:#f0edf2;fill-opacity:1;fill-rule:nonzero;stroke:none"
         d="m 14708.4,8342.41 h -1035 c -62.6,0 -113.3,-50.74 -113.3,-113.33 v -560 c 0,-62.59 50.7,-113.34 113.3,-113.34 h 1035 c 62.6,0 113.4,50.75 113.4,113.34 v 560 c 0,62.59 -50.8,113.33 -113.4,113.33" /><g
         transform="scale(1.01461)"
         id="g228"><path
           id="path230"
           style="fill:#f0edf2;fill-opacity:1;fill-rule:nonzero;stroke:none"
           d="m 16188.3,9446.1 h -1499.5 c -61.7,0 -111.6,-50.01 -111.6,-111.71 v -804.9 c 0,-61.69 49.9,-111.71 111.6,-111.71 h 1499.5 c 61.7,0 111.7,50.02 111.7,111.71 v 804.9 c 0,61.7 -50,111.71 -111.7,111.71" /></g><g
         transform="scale(1.04471)"
         id="g232"><path
           id="path234"
           style="fill:#f0edf2;fill-opacity:1;fill-rule:nonzero;stroke:none"
           d="M 16191.5,6930.85 H 14122 c -59.9,0 -108.5,-48.57 -108.5,-108.48 V 5757.35 c 0,-59.92 48.6,-108.49 108.5,-108.49 h 2069.5 c 60,0 108.5,48.57 108.5,108.49 v 1065.02 c 0,59.91 -48.5,108.48 -108.5,108.48" /></g><path
         id="path236"
         style="fill:#b00b37;fill-opacity:1;fill-rule:nonzero;stroke:none"
         d="m 8840.58,7756.02 h 169.58 l 15.41,64.87 -161.86,53.32 -23.13,-118.19" /><path
         id="path238"
         style="fill:#b00b37;fill-opacity:1;fill-rule:nonzero;stroke:none"
         d="m 9055.12,7298.32 67.35,-82.7 92.19,108.49 -35.49,47.14 -124.05,-72.93" /><path
         id="path240"
         style="fill:#b00b37;fill-opacity:1;fill-rule:nonzero;stroke:none"
         d="m 10499.8,7874.21 -161.9,-53.32 15.4,-64.87 h 169.6 l -23.1,118.19" /><path
         id="path242"
         style="fill:#b00b37;fill-opacity:1;fill-rule:nonzero;stroke:none"
         d="m 10148.8,7324.11 92.2,-108.49 67.4,82.7 -124.1,72.93 -35.5,-47.14" /><path
         id="path244"
         style="fill:#b1a9b5;fill-opacity:1;fill-rule:nonzero;stroke:none"
         d="M 12911.2,9395.74 H 12204 v 150 h 707.2 v -150" /><path
         id="path246"
         style="fill:#b1a9b5;fill-opacity:1;fill-rule:nonzero;stroke:none"
         d="m 15830.1,6915.74 h -1067 v 150 h 1067 v -150" /><g
         transform="scale(1.0039)"
         id="g248"><path
           id="path250"
           style="fill:#b1a9b5;fill-opacity:1;fill-rule:nonzero;stroke:none"
           d="m 16300,6004.81 h -1062.9 v 149.41 H 16300 v -149.41" /></g><path
         id="path252"
         style="fill:#b1a9b5;fill-opacity:1;fill-rule:nonzero;stroke:none"
         d="m 16023.1,6915.74 h 150 v 150 h -150 v -150" /><g
         transform="scale(1.00801)"
         id="g254"><path
           id="path256"
           style="fill:#b1a9b5;fill-opacity:1;fill-rule:nonzero;stroke:none"
           d="m 16151.2,6860.77 h 148.8 v 148.8 h -148.8 v -148.8" /></g><g
         transform="scale(1.02381)"
         id="g258"><path
           id="path260"
           style="fill:#b1a9b5;fill-opacity:1;fill-rule:nonzero;stroke:none"
           d="M 16153.5,6901.42 V 6754.9 h 146.5 v 146.52 h -146.5" /></g><path
         id="path262"
         style="fill:#d1c8d6;fill-opacity:1;fill-rule:nonzero;stroke:none"
         d="m 12636.8,9269.08 v -93.34 h 716.6 v 93.34 h -716.6" /><path
         id="path264"
         style="fill:#d1c8d6;fill-opacity:1;fill-rule:nonzero;stroke:none"
         d="m 12636.8,9015.74 h 716.6 v 93.34 h -716.6 v -93.34" /><path
         id="path266"
         style="fill:#d1c8d6;fill-opacity:1;fill-rule:nonzero;stroke:none"
         d="m 12636.8,8855.74 h 716.6 v 93.34 h -716.6 v -93.34" /><path
         id="path268"
         style="fill:#d1c8d6;fill-opacity:1;fill-rule:nonzero;stroke:none"
         d="m 13736,8174.2 v -101.67 h 780.7 V 8174.2 H 13736" /><path
         id="path270"
         style="fill:#d1c8d6;fill-opacity:1;fill-rule:nonzero;stroke:none"
         d="m 13736,7898.24 h 780.7 v 101.67 H 13736 v -101.67" /><path
         id="path272"
         style="fill:#d1c8d6;fill-opacity:1;fill-rule:nonzero;stroke:none"
         d="m 13736,7723.96 h 780.7 v 101.66 H 13736 v -101.66" /><path
         id="path274"
         style="fill:#f8b787;fill-opacity:1;fill-rule:nonzero;stroke:none"
         d="m 13586.8,9545.74 h -300 v -150 h 300 v 150" /><path
         id="path276"
         style="fill:#f8b787;fill-opacity:1;fill-rule:nonzero;stroke:none"
         d="m 14584.9,8167.03 v -94.5 h 94.5 v 94.5 h -94.5" /><path
         id="path278"
         style="fill:#f8b787;fill-opacity:1;fill-rule:nonzero;stroke:none"
         d="m 14584.9,7901.83 h 94.5 v 94.5 h -94.5 v -94.5" /><path
         id="path280"
         style="fill:#f8b787;fill-opacity:1;fill-rule:nonzero;stroke:none"
         d="m 14584.9,7731.13 h 94.5 v 94.49 h -94.5 v -94.49" /><path
         id="path282"
         style="fill:#8ab5ae;fill-opacity:1;fill-rule:nonzero;stroke:none"
         d="m 15310.1,9395.74 h -386.7 v -295 h 386.7 v 295" /><path
         id="path284"
         style="fill:#ec9589;fill-opacity:1;fill-rule:nonzero;stroke:none"
         d="m 15670.1,6719.08 h -680 v -346.74 h 680 v 346.74" /><g
         transform="scale(1.00533)"
         id="g286"><path
           id="path288"
           style="fill:#d1c8d6;fill-opacity:1;fill-rule:nonzero;stroke:none"
           d="m 15461.1,9341.21 v -43.91 h 838.9 v 43.91 h -838.9" /></g><g
         transform="scale(1.00533)"
         id="g290"><path
           id="path292"
           style="fill:#d1c8d6;fill-opacity:1;fill-rule:nonzero;stroke:none"
           d="m 15461.1,9198.03 h 838.9 v 43.9 h -838.9 v -43.9" /></g><g
         transform="scale(1.00533)"
         id="g294"><path
           id="path296"
           style="fill:#d1c8d6;fill-opacity:1;fill-rule:nonzero;stroke:none"
           d="m 15461.1,9098.75 h 838.9 v 43.92 h -838.9 v -43.92" /></g><g
         transform="scale(1.00533)"
         id="g298"><path
           id="path300"
           style="fill:#b1a9b5;fill-opacity:1;fill-rule:nonzero;stroke:none"
           d="m 15229,8888.41 v -86.2 h 1071 v 86.2 h -1071" /></g><g
         transform="scale(1.00533)"
         id="g302"><path
           id="path304"
           style="fill:#b1a9b5;fill-opacity:1;fill-rule:nonzero;stroke:none"
           d="m 15229,8646.37 h 1071 v 86.21 h -1071 v -86.21" /></g><g
         transform="scale(1.02381)"
         id="g306"><path
           id="path308"
           style="fill:#d1c8d6;fill-opacity:1;fill-rule:nonzero;stroke:none"
           d="m 15650.5,6562.82 v -75.7 h 649.5 v 75.7 h -649.5" /></g><g
         transform="scale(1.02381)"
         id="g310"><path
           id="path312"
           style="fill:#d1c8d6;fill-opacity:1;fill-rule:nonzero;stroke:none"
           d="m 15650.5,6355.63 h 649.5 v 75.7 h -649.5 v -75.7" /></g><g
         transform="scale(1.02381)"
         id="g314"><path
           id="path316"
           style="fill:#d1c8d6;fill-opacity:1;fill-rule:nonzero;stroke:none"
           d="m 15650.5,6224.14 h 649.5 v 75.7 h -649.5 v -75.7" /></g></g></g></svg>