<?xml version="1.0" standalone="no"?><svg xmlns="http://www.w3.org/2000/svg" viewBox="0 0 1440 320"><path fill="#00B0FF" fill-opacity="1" d="M0,224L24,218.7C48,213,96,203,144,181.3C192,160,240,128,288,101.3C336,75,384,53,432,80C480,107,528,181,576,229.3C624,277,672,299,720,261.3C768,224,816,128,864,122.7C912,117,960,203,1008,229.3C1056,256,1104,224,1152,186.7C1200,149,1248,107,1296,96C1344,85,1392,107,1416,117.3L1440,128L1440,320L1416,320C1392,320,1344,320,1296,320C1248,320,1200,320,1152,320C1104,320,1056,320,1008,320C960,320,912,320,864,320C816,320,768,320,720,320C672,320,624,320,576,320C528,320,480,320,432,320C384,320,336,320,288,320C240,320,192,320,144,320C96,320,48,320,24,320L0,320Z"></path></svg>